<svg xmlns="http://www.w3.org/2000/svg" width="900" height="700" viewBox="0 0 900 700" role="img" aria-labelledby="title desc">
  <title id="title">Bible study teaching online</title><desc id="desc">Open Bible with warm scripture-inspired light for online Bible teaching.</desc>
  <defs><linearGradient id="bg" x1="0" y1="0" x2="1" y2="1"><stop offset="0" stop-color="#17130f"/><stop offset=".48" stop-color="#31566d"/><stop offset="1" stop-color="#f2d18a"/></linearGradient><radialGradient id="glow" cx="50%" cy="40%" r="48%"><stop offset="0" stop-color="#fffdf8" stop-opacity=".86"/><stop offset=".62" stop-color="#d6a647" stop-opacity=".2"/><stop offset="1" stop-color="#d6a647" stop-opacity="0"/></radialGradient></defs>
  <rect width="900" height="700" fill="url(#bg)"/><circle cx="450" cy="290" r="330" fill="url(#glow)"/><path d="M144 264 C240 218 344 225 450 278 L450 520 C344 470 240 462 144 508 Z" fill="#fffdf8" opacity=".9"/><path d="M450 278 C556 225 660 218 756 264 L756 508 C660 462 556 470 450 520 Z" fill="#fff6e7" opacity=".8"/><path d="M450 278 V520" stroke="#d6a647" stroke-width="8"/><g stroke="#24382c" stroke-width="8" opacity=".3" stroke-linecap="round"><path d="M210 310 C272 292 332 296 396 320"/><path d="M204 362 C280 342 340 352 398 376"/><path d="M208 416 C276 398 336 404 396 428"/><path d="M506 320 C570 296 630 292 692 310"/><path d="M502 376 C560 352 620 342 696 362"/><path d="M504 428 C564 404 624 398 692 416"/></g><path d="M0 585 C180 520 330 610 460 560 C612 500 710 520 900 450 L900 700 L0 700 Z" fill="#10120f" opacity=".58"/>
</svg>
