<svg xmlns="http://www.w3.org/2000/svg" width="1600" height="900" viewBox="0 0 1600 900" role="img" aria-labelledby="title desc">
  <title id="title">Online worship livestream ministry with Bible light and prayer</title>
  <desc id="desc">Abstract modern spiritual background for online worship, livestream sermons, Bible teaching, and prayer.</desc>
  <defs><linearGradient id="bg" x1="0" y1="0" x2="1" y2="1"><stop offset="0" stop-color="#121611"/><stop offset=".42" stop-color="#244233"/><stop offset=".72" stop-color="#683d32"/><stop offset="1" stop-color="#d6a647"/></linearGradient><radialGradient id="glow" cx="64%" cy="36%" r="45%"><stop offset="0" stop-color="#fff3c5" stop-opacity=".95"/><stop offset=".25" stop-color="#f2d18a" stop-opacity=".62"/><stop offset=".64" stop-color="#d6a647" stop-opacity=".18"/><stop offset="1" stop-color="#d6a647" stop-opacity="0"/></radialGradient><linearGradient id="screen" x1="0" y1="0" x2="1" y2="1"><stop offset="0" stop-color="#f9eed6"/><stop offset=".44" stop-color="#d6a647"/><stop offset="1" stop-color="#486c53"/></linearGradient></defs>
  <rect width="1600" height="900" fill="url(#bg)"/><circle cx="1020" cy="300" r="430" fill="url(#glow)"/><path d="M0 650 C230 548 355 721 570 612 C787 502 930 598 1110 510 C1302 416 1416 461 1600 382 L1600 900 L0 900 Z" fill="#0d100d" opacity=".46"/><path d="M0 730 C250 650 438 792 660 690 C904 578 1108 684 1600 548 L1600 900 L0 900 Z" fill="#17130f" opacity=".72"/>
  <g opacity=".16" fill="none" stroke="#fff6e7" stroke-width="2"><path d="M120 155 H1480"/><path d="M120 255 H1480"/><path d="M120 355 H1480"/><path d="M120 455 H1480"/><path d="M120 555 H1480"/><path d="M260 80 V720"/><path d="M520 80 V720"/><path d="M780 80 V720"/><path d="M1040 80 V720"/><path d="M1300 80 V720"/></g>
  <g transform="translate(890 215)"><rect x="0" y="0" width="470" height="292" rx="28" fill="#0f1512" stroke="#fff6e7" stroke-opacity=".32" stroke-width="5"/><rect x="28" y="28" width="414" height="236" rx="18" fill="url(#screen)"/><circle cx="235" cy="146" r="76" fill="#fff6e7" opacity=".22"/><path d="M199 188 C229 136 249 106 273 68 C286 122 271 164 302 214 C260 197 232 202 199 188 Z" fill="#fff6e7" opacity=".92"/><path d="M95 118 C142 91 181 91 225 122 M250 122 C295 91 337 91 382 118" fill="none" stroke="#fffdf8" stroke-width="11" stroke-linecap="round" opacity=".8"/><rect x="170" y="292" width="130" height="52" fill="#0f1512"/><path d="M84 344 H386 L420 392 H50 Z" fill="#0f1512" stroke="#fff6e7" stroke-opacity=".22" stroke-width="4"/></g>
  <g transform="translate(250 522)" fill="#fff6e7" opacity=".88"><path d="M71 192 C45 163 32 127 30 82 C29 61 41 48 58 48 C73 48 84 59 86 78 L92 132 C96 169 118 201 150 220 L170 232 L147 264 C116 247 91 223 71 192 Z"/><path d="M296 192 C322 163 335 127 337 82 C338 61 326 48 309 48 C294 48 283 59 281 78 L275 132 C271 169 249 201 217 220 L197 232 L220 264 C251 247 276 223 296 192 Z"/></g>
  <g transform="translate(470 338)"><path d="M0 210 C96 170 184 170 280 210 L280 302 C184 262 96 262 0 302 Z" fill="#fff6e7" opacity=".92"/><path d="M280 210 C376 170 464 170 560 210 L560 302 C464 262 376 262 280 302 Z" fill="#fff6e7" opacity=".82"/><path d="M280 210 V302" stroke="#d6a647" stroke-width="6"/><path d="M76 230 C128 214 191 214 244 230 M342 230 C394 214 457 214 510 230 M86 258 C139 242 190 242 234 258 M356 258 C409 242 460 242 504 258" stroke="#24382c" stroke-width="5" opacity=".36" stroke-linecap="round"/></g>
  <g fill="#fff6e7" opacity=".26"><circle cx="1200" cy="152" r="8"/><circle cx="1340" cy="226" r="5"/><circle cx="1110" cy="552" r="6"/><circle cx="420" cy="184" r="6"/><circle cx="640" cy="114" r="4"/><circle cx="1450" cy="430" r="7"/></g>
</svg>
