<svg xmlns="http://www.w3.org/2000/svg" width="900" height="700" viewBox="0 0 900 700" role="img" aria-labelledby="title desc">
  <title id="title">Global online outreach</title><desc id="desc">Modern abstract global outreach visual for livestream ministry and online fellowship.</desc>
  <defs><linearGradient id="bg" x1="0" y1="0" x2="1" y2="1"><stop offset="0" stop-color="#101612"/><stop offset=".45" stop-color="#244233"/><stop offset="1" stop-color="#31566d"/></linearGradient><radialGradient id="glow" cx="52%" cy="42%" r="44%"><stop offset="0" stop-color="#fffdf8" stop-opacity=".7"/><stop offset=".54" stop-color="#d6a647" stop-opacity=".18"/><stop offset="1" stop-color="#d6a647" stop-opacity="0"/></radialGradient></defs>
  <rect width="900" height="700" fill="url(#bg)"/><circle cx="450" cy="318" r="300" fill="url(#glow)"/><circle cx="450" cy="318" r="205" fill="none" stroke="#fff6e7" stroke-opacity=".42" stroke-width="6"/><ellipse cx="450" cy="318" rx="205" ry="82" fill="none" stroke="#fff6e7" stroke-opacity=".3" stroke-width="5"/><ellipse cx="450" cy="318" rx="82" ry="205" fill="none" stroke="#fff6e7" stroke-opacity=".3" stroke-width="5"/><path d="M245 318 H655 M450 113 V523" stroke="#fff6e7" stroke-opacity=".24" stroke-width="5"/><g fill="#f2d18a"><circle cx="260" cy="248" r="14"/><circle cx="620" cy="288" r="13"/><circle cx="410" cy="508" r="12"/><circle cx="530" cy="146" r="10"/><circle cx="324" cy="414" r="11"/></g><g stroke="#f2d18a" stroke-width="4" stroke-opacity=".58" fill="none"><path d="M260 248 C335 180 435 160 530 146"/><path d="M260 248 C350 335 440 380 620 288"/><path d="M324 414 C406 456 470 486 410 508"/><path d="M620 288 C570 390 505 470 410 508"/></g><path d="M0 588 C180 518 292 615 450 545 C642 461 760 548 900 482 L900 700 L0 700 Z" fill="#0d100d" opacity=".58"/>
</svg>
