<svg xmlns="http://www.w3.org/2000/svg" width="900" height="700" viewBox="0 0 900 700" role="img" aria-labelledby="title desc">
  <title id="title">Prayer ministry online</title><desc id="desc">Prayer hands, warm light, and spiritual background for online prayer ministry.</desc>
  <defs><linearGradient id="bg" x1="0" y1="0" x2="1" y2="1"><stop offset="0" stop-color="#1d1714"/><stop offset=".5" stop-color="#6b3432"/><stop offset="1" stop-color="#d6a647"/></linearGradient><radialGradient id="halo" cx="50%" cy="28%" r="45%"><stop offset="0" stop-color="#fff3c5" stop-opacity=".9"/><stop offset=".5" stop-color="#f2d18a" stop-opacity=".25"/><stop offset="1" stop-color="#f2d18a" stop-opacity="0"/></radialGradient></defs>
  <rect width="900" height="700" fill="url(#bg)"/><circle cx="450" cy="210" r="330" fill="url(#halo)"/><g fill="#fff6e7" opacity=".9"><path d="M326 528 C252 466 214 374 220 258 C222 216 248 191 283 196 C312 200 332 224 334 258 L344 390 C347 434 377 476 425 506 L460 528 L426 596 C386 578 354 555 326 528 Z"/><path d="M574 528 C648 466 686 374 680 258 C678 216 652 191 617 196 C588 200 568 224 566 258 L556 390 C553 434 523 476 475 506 L440 528 L474 596 C514 578 546 555 574 528 Z"/><path d="M422 238 C430 181 450 132 482 88 C493 150 484 198 464 248 Z" opacity=".72"/></g><path d="M0 610 C190 540 335 610 450 560 C602 494 740 560 900 472 L900 700 L0 700 Z" fill="#12100d" opacity=".54"/>
</svg>
